<?xml version="1.0" encoding="UTF-8" standalone="no"?><!DOCTYPE svg PUBLIC "-//W3C//DTD SVG 1.1//EN" "http://www.w3.org/Graphics/SVG/1.1/DTD/svg11.dtd"><svg width="100%" height="100%" viewBox="0 0 84 84" version="1.1" xmlns="http://www.w3.org/2000/svg" xmlns:xlink="http://www.w3.org/1999/xlink" xml:space="preserve" xmlns:serif="http://www.serif.com/" style="fill-rule:evenodd;clip-rule:evenodd;stroke-linejoin:round;stroke-miterlimit:2;"><path d="M7.813,33.854c-0,-14.382 11.659,-26.042 26.041,-26.042c14.383,0.001 26.042,11.66 26.042,26.042c-0,14.383 -11.659,26.042 -26.042,26.042c-14.382,-0 -26.042,-11.659 -26.042,-26.042Zm26.042,-33.854c-18.697,0 -33.854,15.157 -33.854,33.854c0,18.698 15.157,33.854 33.854,33.854c7.941,0 15.244,-2.734 21.017,-7.312l17.888,17.887l2.762,2.762l5.524,-5.524l-2.762,-2.762l-17.887,-17.888c4.578,-5.773 7.312,-13.076 7.312,-21.017c0,-18.697 -15.156,-33.854 -33.854,-33.854Z" style="fill:#9bd3ca;"/></svg>